# xmcd
#
# Track frame offsets:
#	150
#	26612
#	46015
#	59667
#	75106
#	93810
#	125489
#	152517
#	167610
#	184905
#
# Disc length: 2866 seconds
# Revision: 0
# Processed by: cddbd v1.5.2PL0 Copyright (c) Steve Scherf et al.
# Submitted via: dBpowerAMP V12.0
#
DISCID=6c0b300a
DTITLE=Eliza Gilkyson - Roses at The End of Time
DYEAR=2011
DGENRE=Singer/Songwriter
TTITLE0=Blue Moon Night
TTITLE1=Death in Arkansas
TTITLE2=Looking For a Place
TTITLE3=Roses at The End of Time
TTITLE4=Slouching Towards Bethlehem
TTITLE5=Belle of The Ball
TTITLE6=Vayan al Norte
TTITLE7=2153
TTITLE8=Midnight on Raton
TTITLE9=Once I Had a Home
EXTD=
EXTT0=
EXTT1=
EXTT2=
EXTT3=
EXTT4=
EXTT5=
EXTT6=
EXTT7=
EXTT8=
EXTT9=
PLAYORDER=
